<?xml version="1.0" encoding="UTF-8"?>
<svg fill="white" width="80" height="80" version="1.1" viewBox="0 0 400 800" xmlns="http://www.w3.org/2000/svg" xmlns:xlink="http://www.w3.org/1999/xlink">
 <g>
  <path d="m243.6 170.57h201.6-0.003906c7.582 0 14.59 4.0469 18.383 10.613 3.7891 6.5664 3.7891 14.656 0 21.223-3.793 6.5703-10.801 10.613-18.383 10.613h-201.6c-7.5859 0-14.59-4.043-18.383-10.613-3.7891-6.5664-3.7891-14.656 0-21.223 3.793-6.5664 10.797-10.613 18.383-10.613z"/>
  <path d="m302.4 276.64h142.41c7.582 0 14.59 4.043 18.379 10.613 3.793 6.5664 3.793 14.656 0 21.223-3.7891 6.5664-10.797 10.613-18.379 10.613h-142.41c-7.582 0-14.586-4.0469-18.379-10.613-3.793-6.5664-3.793-14.656 0-21.223 3.793-6.5703 10.797-10.613 18.379-10.613z"/>
  <path d="m366.02 382.7h78.793c7.582 0 14.59 4.0469 18.379 10.613 3.793 6.5664 3.793 14.656 0 21.223-3.7891 6.5664-10.797 10.613-18.379 10.613h-78.793c-7.582 0-14.59-4.0469-18.379-10.613-3.793-6.5664-3.793-14.656 0-21.223 3.7891-6.5664 10.797-10.613 18.379-10.613z"/>
 </g>
</svg>
